<mxfile host="app.diagrams.net" modified="2023-11-25T22:37:29.942Z" agent="Mozilla/5.0 (Windows NT 10.0; Win64; x64; rv:120.0) Gecko/20100101 Firefox/120.0" etag="Iyey05jNz-0Tyq0gEl3M" version="22.1.4" type="google">
  <diagram name="PÃ¡gina-1" id="lAkIycDgU99KK788xDHf">
    <mxGraphModel grid="1" page="1" gridSize="10" guides="1" tooltips="1" connect="1" arrows="1" fold="1" pageScale="1" pageWidth="827" pageHeight="1169" math="0" shadow="0">
      <root>
        <mxCell id="0" />
        <mxCell id="1" parent="0" />
        <mxCell id="0UxNvXZgY6uybbV42tHL-4" value="" style="shape=umlLifeline;perimeter=lifelinePerimeter;whiteSpace=wrap;html=1;container=1;dropTarget=0;collapsible=0;recursiveResize=0;outlineConnect=0;portConstraint=eastwest;newEdgeStyle={&quot;curved&quot;:0,&quot;rounded&quot;:0};participant=umlActor;" vertex="1" parent="1">
          <mxGeometry x="170" y="40" width="20" height="660" as="geometry" />
        </mxCell>
        <mxCell id="0UxNvXZgY6uybbV42tHL-16" value="" style="html=1;points=[[0,0,0,0,5],[0,1,0,0,-5],[1,0,0,0,5],[1,1,0,0,-5]];perimeter=orthogonalPerimeter;outlineConnect=0;targetShapes=umlLifeline;portConstraint=eastwest;newEdgeStyle={&quot;curved&quot;:0,&quot;rounded&quot;:0};" vertex="1" parent="0UxNvXZgY6uybbV42tHL-4">
          <mxGeometry x="5" y="50" width="10" height="370" as="geometry" />
        </mxCell>
        <mxCell id="0UxNvXZgY6uybbV42tHL-6" value="" style="shape=umlLifeline;perimeter=lifelinePerimeter;whiteSpace=wrap;html=1;container=1;dropTarget=0;collapsible=0;recursiveResize=0;outlineConnect=0;portConstraint=eastwest;newEdgeStyle={&quot;curved&quot;:0,&quot;rounded&quot;:0};participant=umlActor;" vertex="1" parent="1">
          <mxGeometry x="60" y="40" width="20" height="660" as="geometry" />
        </mxCell>
        <mxCell id="0UxNvXZgY6uybbV42tHL-25" value="" style="html=1;points=[[0,0,0,0,5],[0,1,0,0,-5],[1,0,0,0,5],[1,1,0,0,-5]];perimeter=orthogonalPerimeter;outlineConnect=0;targetShapes=umlLifeline;portConstraint=eastwest;newEdgeStyle={&quot;curved&quot;:0,&quot;rounded&quot;:0};" vertex="1" parent="0UxNvXZgY6uybbV42tHL-6">
          <mxGeometry x="5" y="510" width="10" height="130" as="geometry" />
        </mxCell>
        <mxCell id="0UxNvXZgY6uybbV42tHL-7" value="" style="shape=umlLifeline;perimeter=lifelinePerimeter;whiteSpace=wrap;html=1;container=1;dropTarget=0;collapsible=0;recursiveResize=0;outlineConnect=0;portConstraint=eastwest;newEdgeStyle={&quot;curved&quot;:0,&quot;rounded&quot;:0};participant=umlBoundary;" vertex="1" parent="1">
          <mxGeometry x="280" y="40" width="50" height="660" as="geometry" />
        </mxCell>
        <mxCell id="0UxNvXZgY6uybbV42tHL-17" value="" style="html=1;points=[[0,0,0,0,5],[0,1,0,0,-5],[1,0,0,0,5],[1,1,0,0,-5]];perimeter=orthogonalPerimeter;outlineConnect=0;targetShapes=umlLifeline;portConstraint=eastwest;newEdgeStyle={&quot;curved&quot;:0,&quot;rounded&quot;:0};" vertex="1" parent="0UxNvXZgY6uybbV42tHL-7">
          <mxGeometry x="20" y="60" width="10" height="220" as="geometry" />
        </mxCell>
        <mxCell id="lShOR-yjIEsVqBOX47vc-5" value="" style="html=1;points=[[0,0,0,0,5],[0,1,0,0,-5],[1,0,0,0,5],[1,1,0,0,-5]];perimeter=orthogonalPerimeter;outlineConnect=0;targetShapes=umlLifeline;portConstraint=eastwest;newEdgeStyle={&quot;curved&quot;:0,&quot;rounded&quot;:0};" vertex="1" parent="0UxNvXZgY6uybbV42tHL-7">
          <mxGeometry x="20" y="310" width="10" height="110" as="geometry" />
        </mxCell>
        <mxCell id="0UxNvXZgY6uybbV42tHL-26" value="" style="html=1;points=[[0,0,0,0,5],[0,1,0,0,-5],[1,0,0,0,5],[1,1,0,0,-5]];perimeter=orthogonalPerimeter;outlineConnect=0;targetShapes=umlLifeline;portConstraint=eastwest;newEdgeStyle={&quot;curved&quot;:0,&quot;rounded&quot;:0};" vertex="1" parent="0UxNvXZgY6uybbV42tHL-7">
          <mxGeometry x="20" y="520" width="10" height="120" as="geometry" />
        </mxCell>
        <mxCell id="0UxNvXZgY6uybbV42tHL-8" value="" style="shape=umlLifeline;perimeter=lifelinePerimeter;whiteSpace=wrap;html=1;container=1;dropTarget=0;collapsible=0;recursiveResize=0;outlineConnect=0;portConstraint=eastwest;newEdgeStyle={&quot;curved&quot;:0,&quot;rounded&quot;:0};participant=umlControl;" vertex="1" parent="1">
          <mxGeometry x="420" y="40" width="40" height="660" as="geometry" />
        </mxCell>
        <mxCell id="0UxNvXZgY6uybbV42tHL-19" value="" style="html=1;points=[[0,0,0,0,5],[0,1,0,0,-5],[1,0,0,0,5],[1,1,0,0,-5]];perimeter=orthogonalPerimeter;outlineConnect=0;targetShapes=umlLifeline;portConstraint=eastwest;newEdgeStyle={&quot;curved&quot;:0,&quot;rounded&quot;:0};" vertex="1" parent="0UxNvXZgY6uybbV42tHL-8">
          <mxGeometry x="15" y="70" width="10" height="210" as="geometry" />
        </mxCell>
        <mxCell id="lShOR-yjIEsVqBOX47vc-7" value="" style="html=1;points=[[0,0,0,0,5],[0,1,0,0,-5],[1,0,0,0,5],[1,1,0,0,-5]];perimeter=orthogonalPerimeter;outlineConnect=0;targetShapes=umlLifeline;portConstraint=eastwest;newEdgeStyle={&quot;curved&quot;:0,&quot;rounded&quot;:0};" vertex="1" parent="0UxNvXZgY6uybbV42tHL-8">
          <mxGeometry x="15" y="320" width="10" height="100" as="geometry" />
        </mxCell>
        <mxCell id="0UxNvXZgY6uybbV42tHL-27" value="" style="html=1;points=[[0,0,0,0,5],[0,1,0,0,-5],[1,0,0,0,5],[1,1,0,0,-5]];perimeter=orthogonalPerimeter;outlineConnect=0;targetShapes=umlLifeline;portConstraint=eastwest;newEdgeStyle={&quot;curved&quot;:0,&quot;rounded&quot;:0};" vertex="1" parent="0UxNvXZgY6uybbV42tHL-8">
          <mxGeometry x="15" y="530" width="10" height="110" as="geometry" />
        </mxCell>
        <mxCell id="0UxNvXZgY6uybbV42tHL-9" value="" style="shape=umlLifeline;perimeter=lifelinePerimeter;whiteSpace=wrap;html=1;container=1;dropTarget=0;collapsible=0;recursiveResize=0;outlineConnect=0;portConstraint=eastwest;newEdgeStyle={&quot;curved&quot;:0,&quot;rounded&quot;:0};participant=umlEntity;" vertex="1" parent="1">
          <mxGeometry x="550" y="40" width="40" height="660" as="geometry" />
        </mxCell>
        <mxCell id="0UxNvXZgY6uybbV42tHL-21" value="" style="html=1;points=[[0,0,0,0,5],[0,1,0,0,-5],[1,0,0,0,5],[1,1,0,0,-5]];perimeter=orthogonalPerimeter;outlineConnect=0;targetShapes=umlLifeline;portConstraint=eastwest;newEdgeStyle={&quot;curved&quot;:0,&quot;rounded&quot;:0};" vertex="1" parent="0UxNvXZgY6uybbV42tHL-9">
          <mxGeometry x="15" y="100" width="10" height="130" as="geometry" />
        </mxCell>
        <mxCell id="0UxNvXZgY6uybbV42tHL-28" value="" style="html=1;points=[[0,0,0,0,5],[0,1,0,0,-5],[1,0,0,0,5],[1,1,0,0,-5]];perimeter=orthogonalPerimeter;outlineConnect=0;targetShapes=umlLifeline;portConstraint=eastwest;newEdgeStyle={&quot;curved&quot;:0,&quot;rounded&quot;:0};" vertex="1" parent="0UxNvXZgY6uybbV42tHL-9">
          <mxGeometry x="15" y="540" width="10" height="70" as="geometry" />
        </mxCell>
        <mxCell id="0UxNvXZgY6uybbV42tHL-10" value="Aluno" style="text;align=center;fontStyle=1;verticalAlign=middle;spacingLeft=3;spacingRight=3;strokeColor=none;rotatable=0;points=[[0,0.5],[1,0.5]];portConstraint=eastwest;html=1;" vertex="1" parent="1">
          <mxGeometry x="30" width="80" height="26" as="geometry" />
        </mxCell>
        <mxCell id="0UxNvXZgY6uybbV42tHL-11" value="Instrutor" style="text;align=center;fontStyle=1;verticalAlign=middle;spacingLeft=3;spacingRight=3;strokeColor=none;rotatable=0;points=[[0,0.5],[1,0.5]];portConstraint=eastwest;html=1;" vertex="1" parent="1">
          <mxGeometry x="140" width="80" height="26" as="geometry" />
        </mxCell>
        <mxCell id="0UxNvXZgY6uybbV42tHL-12" value="viewFicha" style="text;align=center;fontStyle=1;verticalAlign=middle;spacingLeft=3;spacingRight=3;strokeColor=none;rotatable=0;points=[[0,0.5],[1,0.5]];portConstraint=eastwest;html=1;" vertex="1" parent="1">
          <mxGeometry x="265" width="80" height="26" as="geometry" />
        </mxCell>
        <mxCell id="0UxNvXZgY6uybbV42tHL-14" value="ControlFicha" style="text;align=center;fontStyle=1;verticalAlign=middle;spacingLeft=3;spacingRight=3;strokeColor=none;rotatable=0;points=[[0,0.5],[1,0.5]];portConstraint=eastwest;html=1;" vertex="1" parent="1">
          <mxGeometry x="400" width="80" height="26" as="geometry" />
        </mxCell>
        <mxCell id="0UxNvXZgY6uybbV42tHL-15" value="Aluno" style="text;align=center;fontStyle=1;verticalAlign=middle;spacingLeft=3;spacingRight=3;strokeColor=none;rotatable=0;points=[[0,0.5],[1,0.5]];portConstraint=eastwest;html=1;" vertex="1" parent="1">
          <mxGeometry x="530" width="80" height="26" as="geometry" />
        </mxCell>
        <mxCell id="0UxNvXZgY6uybbV42tHL-18" value="Cadastrar Ficha" style="html=1;verticalAlign=bottom;endArrow=block;curved=0;rounded=0;entryX=0;entryY=0;entryDx=0;entryDy=5;entryPerimeter=0;" edge="1" parent="1" source="0UxNvXZgY6uybbV42tHL-16" target="0UxNvXZgY6uybbV42tHL-17">
          <mxGeometry width="80" relative="1" as="geometry">
            <mxPoint x="185" y="100" as="sourcePoint" />
            <mxPoint x="265" y="100" as="targetPoint" />
          </mxGeometry>
        </mxCell>
        <mxCell id="0UxNvXZgY6uybbV42tHL-20" value="Dados Ficha" style="html=1;verticalAlign=bottom;endArrow=block;curved=0;rounded=0;" edge="1" parent="1" target="0UxNvXZgY6uybbV42tHL-19">
          <mxGeometry width="80" relative="1" as="geometry">
            <mxPoint x="310" y="110" as="sourcePoint" />
            <mxPoint x="390" y="110" as="targetPoint" />
          </mxGeometry>
        </mxCell>
        <mxCell id="0UxNvXZgY6uybbV42tHL-22" value="&lt;div&gt;Criar aluno&lt;/div&gt;&lt;div&gt;Consultar aluno&lt;br&gt;&lt;/div&gt;" style="html=1;verticalAlign=bottom;endArrow=block;curved=0;rounded=0;" edge="1" parent="1">
          <mxGeometry width="80" relative="1" as="geometry">
            <mxPoint x="445" y="140" as="sourcePoint" />
            <mxPoint x="565" y="140" as="targetPoint" />
          </mxGeometry>
        </mxCell>
        <mxCell id="0UxNvXZgY6uybbV42tHL-23" value="Dados alunos: string" style="html=1;verticalAlign=bottom;endArrow=open;dashed=1;endSize=8;curved=0;rounded=0;" edge="1" parent="1">
          <mxGeometry relative="1" as="geometry">
            <mxPoint x="565" y="250" as="sourcePoint" />
            <mxPoint x="445" y="250" as="targetPoint" />
          </mxGeometry>
        </mxCell>
        <mxCell id="0UxNvXZgY6uybbV42tHL-24" value="Carregar ficha" style="html=1;verticalAlign=bottom;endArrow=block;curved=0;rounded=0;" edge="1" parent="1">
          <mxGeometry width="80" relative="1" as="geometry">
            <mxPoint x="435" y="290" as="sourcePoint" />
            <mxPoint x="310" y="290" as="targetPoint" />
          </mxGeometry>
        </mxCell>
        <mxCell id="lShOR-yjIEsVqBOX47vc-1" value="" style="shape=umlLifeline;perimeter=lifelinePerimeter;whiteSpace=wrap;html=1;container=1;dropTarget=0;collapsible=0;recursiveResize=0;outlineConnect=0;portConstraint=eastwest;newEdgeStyle={&quot;curved&quot;:0,&quot;rounded&quot;:0};participant=umlEntity;" vertex="1" parent="1">
          <mxGeometry x="680" y="40" width="40" height="660" as="geometry" />
        </mxCell>
        <mxCell id="lShOR-yjIEsVqBOX47vc-4" value="" style="html=1;points=[[0,0,0,0,5],[0,1,0,0,-5],[1,0,0,0,5],[1,1,0,0,-5]];perimeter=orthogonalPerimeter;outlineConnect=0;targetShapes=umlLifeline;portConstraint=eastwest;newEdgeStyle={&quot;curved&quot;:0,&quot;rounded&quot;:0};" vertex="1" parent="lShOR-yjIEsVqBOX47vc-1">
          <mxGeometry x="15" y="330" width="10" height="60" as="geometry" />
        </mxCell>
        <mxCell id="lShOR-yjIEsVqBOX47vc-2" value="Pagamento" style="text;align=center;fontStyle=1;verticalAlign=middle;spacingLeft=3;spacingRight=3;strokeColor=none;rotatable=0;points=[[0,0.5],[1,0.5]];portConstraint=eastwest;html=1;" vertex="1" parent="1">
          <mxGeometry x="660" width="80" height="26" as="geometry" />
        </mxCell>
        <mxCell id="0UxNvXZgY6uybbV42tHL-29" value="Consultar Ficha" style="html=1;verticalAlign=bottom;endArrow=block;curved=0;rounded=0;" edge="1" parent="1" source="0UxNvXZgY6uybbV42tHL-25" target="0UxNvXZgY6uybbV42tHL-26">
          <mxGeometry width="80" relative="1" as="geometry">
            <mxPoint x="75" y="560" as="sourcePoint" />
            <mxPoint x="265" y="570" as="targetPoint" />
            <Array as="points">
              <mxPoint x="185" y="560" />
            </Array>
          </mxGeometry>
        </mxCell>
        <mxCell id="0UxNvXZgY6uybbV42tHL-30" value="Selecionar Ficha" style="html=1;verticalAlign=bottom;endArrow=block;curved=0;rounded=0;" edge="1" parent="1">
          <mxGeometry width="80" relative="1" as="geometry">
            <mxPoint x="310" y="570" as="sourcePoint" />
            <mxPoint x="435" y="570" as="targetPoint" />
          </mxGeometry>
        </mxCell>
        <mxCell id="0UxNvXZgY6uybbV42tHL-31" value="Consultar aluno" style="html=1;verticalAlign=bottom;endArrow=block;curved=0;rounded=0;" edge="1" parent="1" source="0UxNvXZgY6uybbV42tHL-27" target="0UxNvXZgY6uybbV42tHL-28">
          <mxGeometry width="80" relative="1" as="geometry">
            <mxPoint x="435" y="580" as="sourcePoint" />
            <mxPoint x="555" y="580" as="targetPoint" />
            <Array as="points">
              <mxPoint x="505" y="580" />
            </Array>
          </mxGeometry>
        </mxCell>
        <mxCell id="0UxNvXZgY6uybbV42tHL-32" value="Dados alunos: string" style="html=1;verticalAlign=bottom;endArrow=open;dashed=1;endSize=8;curved=0;rounded=0;" edge="1" parent="1">
          <mxGeometry relative="1" as="geometry">
            <mxPoint x="565" y="640" as="sourcePoint" />
            <mxPoint x="445" y="640" as="targetPoint" />
          </mxGeometry>
        </mxCell>
        <mxCell id="0UxNvXZgY6uybbV42tHL-33" value="Mostrar Ficha" style="html=1;verticalAlign=bottom;endArrow=block;curved=0;rounded=0;" edge="1" parent="1">
          <mxGeometry width="80" relative="1" as="geometry">
            <mxPoint x="435" y="660" as="sourcePoint" />
            <mxPoint x="310" y="660" as="targetPoint" />
          </mxGeometry>
        </mxCell>
        <mxCell id="lShOR-yjIEsVqBOX47vc-6" value="&lt;div&gt;Cadastrar meio&lt;/div&gt;&lt;div&gt;pagamento&lt;br&gt;&lt;/div&gt;" style="html=1;verticalAlign=bottom;endArrow=block;curved=0;rounded=0;" edge="1" parent="1" source="0UxNvXZgY6uybbV42tHL-16" target="lShOR-yjIEsVqBOX47vc-5">
          <mxGeometry width="80" relative="1" as="geometry">
            <mxPoint x="190" y="350" as="sourcePoint" />
            <mxPoint x="295" y="350" as="targetPoint" />
          </mxGeometry>
        </mxCell>
        <mxCell id="lShOR-yjIEsVqBOX47vc-8" value="Dados pagamento" style="html=1;verticalAlign=bottom;endArrow=block;curved=0;rounded=0;" edge="1" parent="1">
          <mxGeometry width="80" relative="1" as="geometry">
            <mxPoint x="310" y="360" as="sourcePoint" />
            <mxPoint x="435" y="360" as="targetPoint" />
          </mxGeometry>
        </mxCell>
        <mxCell id="lShOR-yjIEsVqBOX47vc-9" value="&lt;div&gt;Selecionar forma pagamento&lt;br&gt;&lt;/div&gt;&lt;div&gt;Consultar forma pagamento&lt;br&gt;&lt;/div&gt;" style="html=1;verticalAlign=bottom;endArrow=block;curved=0;rounded=0;" edge="1" parent="1" source="lShOR-yjIEsVqBOX47vc-7">
          <mxGeometry width="80" relative="1" as="geometry">
            <mxPoint x="440.25" y="369.8" as="sourcePoint" />
            <mxPoint x="699.75" y="369.8" as="targetPoint" />
          </mxGeometry>
        </mxCell>
        <mxCell id="lShOR-yjIEsVqBOX47vc-10" value="Consultar pagamento: string" style="html=1;verticalAlign=bottom;endArrow=open;dashed=1;endSize=8;curved=0;rounded=0;" edge="1" parent="1">
          <mxGeometry relative="1" as="geometry">
            <mxPoint x="695" y="420" as="sourcePoint" />
            <mxPoint x="445" y="420" as="targetPoint" />
          </mxGeometry>
        </mxCell>
        <mxCell id="lShOR-yjIEsVqBOX47vc-11" value="Carregar pagamento" style="html=1;verticalAlign=bottom;endArrow=block;curved=0;rounded=0;" edge="1" parent="1">
          <mxGeometry width="80" relative="1" as="geometry">
            <mxPoint x="435" y="440" as="sourcePoint" />
            <mxPoint x="310" y="440" as="targetPoint" />
          </mxGeometry>
        </mxCell>
      </root>
    </mxGraphModel>
  </diagram>
</mxfile>
